<svg xmlns="http://www.w3.org/2000/svg" viewBox="0 0 648.61 469.49"><defs><style>.cls-1,.cls-2{fill:#3986c7;}.cls-2{font-size:113px;font-family:Montserrat-Bold, Montserrat;font-weight:700;}</style></defs><g id="Layer_2" data-name="Layer 2"><g id="Layer_1-2" data-name="Layer 1"><path class="cls-1" d="M219.15,369.65l-.7-114.73L165.15,347H128.68L75.39,258.87V369.65H0V117.88H68L148,252l77.84-134.16h68l.7,251.77Z"/><path class="cls-1" d="M491.52,285.23l-18.58,21.22v62.22H391.59V116.91h81.35v91.35l80.64-91.35H643.7L545.52,227.68l103.09,141H552.88Z"/><path class="cls-1" d="M216.49,458.55a102.91,102.91,0,0,1-40.27-31.18l37.17-44.61q23.54,31.82,53.69,31.81,40.89,0,40.89-47.91V69.94H206.37V16.25H374.46V362.94q0,53.28-26.43,79.92t-77.65,26.63Q241.06,469.49,216.49,458.55Z"/><text class="cls-2" transform="translate(382.58 96.05)">DN</text></g></g></svg>