<svg xmlns="http://www.w3.org/2000/svg" width="610" height="506" fill="none" viewBox="0 0 610 506">
  <g clip-path="url(#clip0)">
    <path fill="#3F3D56" d="M435.787 114.555h-4.335c-.854 0-1.547.692-1.547 1.547v58.118c0 .855.693 1.548 1.547 1.548h4.335c.855 0 1.548-.693 1.548-1.548v-58.118c0-.855-.693-1.547-1.548-1.547z"/>
    <path fill="#3F3D56" d="M407.562 0h-195.86c-14.553 0-26.351 11.794-26.351 26.342v452.303c0 14.548 11.798 26.342 26.351 26.342h195.86c14.553 0 26.351-11.794 26.351-26.342V26.342C433.913 11.794 422.115 0 407.562 0z"/>
    <path fill="#fff" d="M399.317 13.153h-28.512v3.429a16.247 16.247 0 01-16.261 16.246h-90.679a16.257 16.257 0 01-15.023-10.027 16.247 16.247 0 01-1.238-6.219v-3.429h-26.696a19.747 19.747 0 00-13.959 5.78 19.73 19.73 0 00-5.782 13.954v439.247c0 5.233 2.08 10.253 5.782 13.954a19.75 19.75 0 0013.959 5.78h178.409c5.236 0 10.257-2.08 13.959-5.78a19.733 19.733 0 005.782-13.954V32.921a19.72 19.72 0 00-5.77-13.976 19.735 19.735 0 00-13.971-5.792z"/>
    <path fill="#E6E8EC" d="M317.75 15.081h-29.478a2.615 2.615 0 00-2.616 2.615v1.812a2.615 2.615 0 002.616 2.615h29.478a2.615 2.615 0 002.616-2.615v-1.812a2.615 2.615 0 00-2.616-2.615zM329.616 22.6a4 4 0 100-7.998 4 4 0 000 7.999z"/>
    <path fill="#fff" d="M311.15 305.697c25.969 0 47.021-21.044 47.021-47.004 0-25.96-21.052-47.004-47.021-47.004s-47.021 21.044-47.021 47.004c0 25.96 21.052 47.004 47.021 47.004z"/>
    <path fill="#0580C3" d="M372.996 252.129a62.812 62.812 0 01-10.593 34.903 62.841 62.841 0 01-28.205 23.137 62.872 62.872 0 01-36.31 3.574 62.847 62.847 0 01-32.177-17.195 62.809 62.809 0 019.526-96.657 62.854 62.854 0 0158.965-5.803 62.841 62.841 0 0134.011 34 62.806 62.806 0 014.783 24.041zm-70.108 33.254l46.618-46.602a4.044 4.044 0 000-5.733l-5.736-5.692a4.048 4.048 0 00-4.415-.88 4.048 4.048 0 00-1.313.88l-38.022 38.009-17.753-17.789a4.066 4.066 0 00-5.736 0l-5.736 5.768a4.061 4.061 0 000 5.733l26.358 26.34a4.04 4.04 0 002.868 1.189 4.056 4.056 0 002.868-1.189l-.001-.034z"/>
    <path fill="#3F3D56" d="M193.133 99.556h-.651c-.855 0-1.548.692-1.548 1.547v15.021c0 .854.693 1.547 1.548 1.547h.651c.854 0 1.547-.693 1.547-1.547v-15.021c0-.855-.693-1.547-1.547-1.547zM193.472 132.726h-1.126c-.855 0-1.548.693-1.548 1.547v28.434c0 .854.693 1.547 1.548 1.547h1.126c.855 0 1.548-.693 1.548-1.547v-28.434c0-.854-.693-1.547-1.548-1.547zM193.336 175.286h-.922c-.855 0-1.548.692-1.548 1.547v28.704c0 .855.693 1.548 1.548 1.548h.922c.855 0 1.548-.693 1.548-1.548v-28.704c0-.855-.693-1.547-1.548-1.547z"/>
    <path fill="url(#paint0_linear)" d="M141.078 259.373a.694.694 0 00.821.105 2.919 2.919 0 01-.821-.105z"/>
    <path fill="#FEB9B9" d="M172.142 271.52l-.811 4.415-.626 3.378-1.138 6.179-11.036 7.724s-.995-.851-2.636-2.193c-4.523-3.723-14.029-11.303-21.009-15.372a23.502 23.502 0 00-5.774-2.66l43.03-1.471z"/>
    <path fill="#3F3D56" d="M164.046 274.805s12.867 2.208 13.621-3.285c.753-5.494-6.623-8.462-12.875-8.832-6.252-.369-43.774 2.208-43.774 2.208s-6.618 8.824 17.285 10.301l25.743-.392z"/>
    <path fill="#2F2E41" d="M192.185 93.535h-67.314v79.792h67.314V93.535z"/>
    <path fill="#000" d="M192.185 93.897h-67.314v79.792h67.314V93.897z" opacity=".1"/>
    <path fill="#FEB9B9" d="M45.978 230.128c-1.108.279-2.525 1.351-4.1 2.901-6.785 6.714-16.501 22.471-16.501 22.471-12.423-14.793 1.324-26.48 7.183-30.497 1.425-.972 2.382-1.507 2.382-1.507l11.036 6.632zM171.403 118.718s3.312 23.164 14.714 28.679c11.402 5.516-14.714 15.824-14.714 15.824l-35.677-13.247s20.232-6.621 16.184-26.11l19.493-5.146zM133.148 258.076l-.807 4.401-.656 3.391-1.138 6.179-11.036 7.716s-.995-.844-2.636-2.185c-4.522-3.722-14.028-11.303-21.019-15.372a23.407 23.407 0 00-5.774-2.66l43.066-1.47z"/>
    <path fill="#2F2E41" d="M123.601 263.503s11.549.082 12.243-5.427c.695-5.509-6.293-8.462-12.243-8.831-5.949-.37-42.098 2.379-42.098 2.379s-5.128 10.404 17.61 11.879H123.6z"/>
    <path fill="#3F3D56" d="M204.57 350.045c-.505-.248-1.01-.504-1.508-.753l-1.357-1.711-17.797-22.56v.392c-.12 3.768-1.402 33.623-11.397 36.38-10.667 2.939-23.534 3.678-29.4-16.178-5.866-19.855-16.583-63.244-27.59-65.821l16.373-13.42s10.84 12.674 15.257 24.806c-.166-.753-7.652-35.717-1.508-41.904h53.713s8.292 23.609 13.975 35.304c4.425 9.08 11.066 30.548 15.342 45.076 4.233 14.346-10.64 27.013-24.103 20.389z"/>
    <path fill="#000" d="M203.04 255.868c-8.292 4.906-44.693 2.909-56.535 2.11l-3.227-.234c-.346 0 .053-.196.053-.196l.332-3.338 8.827-22.425 47.264-27.399c-.958 2.886-1.274 7.302-1.199 12.358.219 16.247 4.485 39.124 4.485 39.124z" opacity=".1"/>
    <path fill="#EFEFEF" d="M203.04 254.761c-8.292 4.906-44.693 2.909-56.536 2.11l-3.226-.226-.535-.045.588-.151 2.909-.753 6.249-25.003 47.264-27.391c-.957 2.886-1.274 7.302-1.199 12.358.219 16.231 4.486 39.101 4.486 39.101z"/>
    <path fill="#000" d="M198.525 215.645c-9.612 2.215-30.763 8.715-38.889 24.414-5.42 10.452-9.981 14.935-13.162 16.812l-3.226-.227a1.82 1.82 0 00.052-.196l2.91-.753 6.249-25.002 47.263-27.391c-.946 2.871-1.273 7.287-1.197 12.343zM34.942 223.512l11.036 6.616c-1.108.279-2.525 1.352-4.1 2.901-.92-2.682-6.691-6.427-9.318-8.024 1.425-.958 2.382-1.493 2.382-1.493zM141.281 257.074a.656.656 0 01-.754-.105c.245.071.499.107.754.105z" opacity=".1"/>
    <path fill="#0580C3" d="M166.255 145.928s-9.935 1.1-16.923-6.254c0 0-29.399 8.462-39.356 27.579-9.956 19.117-77.642 56.628-77.642 56.628s11.775 6.616 10.666 9.924l44.512-25.74s15.83-11.394 20.225-13.971c4.395-2.576 28.697-18.386 33.846 24.634 5.149 43.019 0 37.872 0 37.872s7.357 2.578 18.024-18.017c10.666-20.594 43.766-25.372 43.766-25.372l1.839-21.687s6.566-14.377 1.507-20.345a12.816 12.816 0 01-2.947-6.224c-.837-5.509 0-14.687 11.714-22.312 18.024-11.771 25.011-21.325 25.011-21.325s.369-6.993-10.666-10.301c-11.035-3.309-55.91-21.325-55.91-21.325l-1.508 6.254 35.407 24.98s-17.654 14.317-31.66 13.97c0 0 2.6 10.663-9.905 11.032z"/>
    <path fill="#000" d="M173.069 128.8a71.703 71.703 0 01-2.035-8.982l-19.494 5.148c.86 3.72.706 7.602-.444 11.243a20.968 20.968 0 0021.973-7.409z" opacity=".1"/>
    <path fill="#FEB9B9" d="M156.878 135.816c11.577 0 20.963-9.382 20.963-20.956 0-11.573-9.386-20.956-20.963-20.956-11.578 0-20.964 9.383-20.964 20.956 0 11.574 9.386 20.956 20.964 20.956z"/>
    <path fill="#000" d="M179.68 283.628s12.136 23.903 8.458 31.249l-8.458-31.249z" opacity=".1"/>
    <path fill="#2F2E41" d="M168.026 66.46c5.819.664 11.344 3.157 17.074 4.522a8.475 8.475 0 004.417.165c2.224-.686 4.033-3.014 6.339-2.946 1.42.045 2.676 1.01 3.845 1.936a47.351 47.351 0 015.276 4.702c3.95 4.288 6.4 10.06 10.003 14.724 3.603 4.665 8.741 10.135 13.859 7.995-3.482 13.564-14.342 22.049-26.681 22.893-4.922.338-9.965-.685-14.729.754-1.187.486-2.44.791-3.718.904-2.744 0-4.952-2.517-6.663-4.966-4.011-5.757-7.184-12.29-11.699-17.542-1.508-1.74-3.249-3.391-5.36-3.707-2.111-.316-4.048.693-5.924 1.665-3.099 1.605-6.264 3.263-8.669 6.029-2.405 2.766-3.92 6.849-2.925 10.549.535 2.005 1.757 3.813 1.779 5.908.045 3.345-2.91 5.787-3.49 9.042a33.842 33.842 0 00-.143 4.115c-.257 4.459-3.177 8.107-6.218 10.918-1.191 1.085-2.501 2.261-2.85 3.941-.234 1.152 0 2.365-.15 3.534-.445 2.894-3.332 4.363-5.888 4.74a16.981 16.981 0 01-8.834-1.047c3.573-1.689 5.774-6.495 4.945-10.798-1.138-5.969-7.139-10.256-6.624-16.329a18.9 18.9 0 011.659-5.373 49.17 49.17 0 002.834-10.18c.453-2.69.672-5.546-.173-8.115-.754-2.336-2.329-4.197-3.664-6.172a35.09 35.09 0 01-4.244-8.688 6.1 6.1 0 01-.405-2.879 5.937 5.937 0 011.847-2.977c3.279-3.445 6.784-7.023 11.179-8.01 2.097-.348 4.23-.429 6.347-.24a74.95 74.95 0 0011.028-.468c3.015-.354 8.11-.309 10.666-2.26 2.382-1.825 3.724-4.115 6.656-5.275a19.607 19.607 0 019.302-1.063h-.004z"/>
    <path fill="#0580C3" d="M557.551 503.732c16.794 0 30.409-2.301 30.409-5.141 0-2.839-13.615-5.14-30.409-5.14-16.795 0-30.41 2.301-30.41 5.14 0 2.84 13.615 5.141 30.41 5.141z"/>
    <path fill="#0580C3" d="M570.127 490.185a8.854 8.854 0 002.897-4.378c.378-1.731-.363-3.783-2.027-4.453-1.861-.71-3.853.583-5.355 1.883-1.503 1.3-3.237 2.789-5.211 2.51a7.926 7.926 0 002.461-7.417 3.137 3.137 0 00-.688-1.512c-1.029-1.104-2.906-.635-4.137.242-3.933 2.759-5.029 8.108-5.052 12.904-.401-1.731-.061-3.538-.076-5.292s-.491-3.783-1.996-4.709a6.005 6.005 0 00-3.025-.711c-1.77-.068-3.737.113-4.946 1.406-1.513 1.602-1.105 4.294.196 6.048 1.301 1.754 3.29 2.88 5.121 4.097a11.349 11.349 0 013.649 3.486c.113.199.204.409.271.628h11.049a31.075 31.075 0 006.867-4.73l.002-.002z"/>
    <path fill="#EFEFEF" d="M144.099 506.001c11.084 0 20.069-1.519 20.069-3.393 0-1.874-8.985-3.393-20.069-3.393s-20.069 1.519-20.069 3.393c0 1.874 8.985 3.393 20.069 3.393z"/>
    <path fill="#EFEFEF" d="M152.399 497.06a5.838 5.838 0 001.911-2.889 2.574 2.574 0 00-1.337-2.939c-1.228-.469-2.541.384-3.534 1.242-.992.858-2.136 1.841-3.438 1.657a5.23 5.23 0 001.622-4.894 2.072 2.072 0 00-.454-.998c-.676-.728-1.917-.419-2.73.159-2.595 1.825-3.319 5.349-3.334 8.517-.264-1.142-.04-2.335-.05-3.492-.01-1.157-.324-2.494-1.318-3.108a3.966 3.966 0 00-1.996-.469c-1.168-.044-2.466.075-3.265.929-.998 1.058-.728 2.834.13 3.991s2.171 1.901 3.379 2.703a7.485 7.485 0 012.411 2.297c.075.131.135.27.18.414h7.291a20.49 20.49 0 004.532-3.124v.004zM30.602 506.001c11.084 0 20.07-1.519 20.07-3.393 0-1.874-8.986-3.393-20.07-3.393-11.083 0-20.068 1.519-20.068 3.393 0 1.874 8.985 3.393 20.068 3.393z"/>
    <path fill="#EFEFEF" d="M38.903 497.06a5.844 5.844 0 001.91-2.889 2.576 2.576 0 00-1.337-2.939c-1.228-.469-2.54.384-3.533 1.242-.993.858-2.136 1.841-3.439 1.657a5.23 5.23 0 001.622-4.894 2.06 2.06 0 00-.454-.998c-.676-.728-1.917-.419-2.73.159-2.595 1.825-3.319 5.349-3.334 8.517-.264-1.142-.04-2.335-.05-3.492-.01-1.157-.324-2.494-1.318-3.108a3.966 3.966 0 00-1.996-.469c-1.168-.044-2.465.075-3.264.929-.999 1.058-.729 2.834.13 3.991.858 1.157 2.17 1.901 3.379 2.703a7.485 7.485 0 012.41 2.297c.075.131.135.27.18.414h7.292a20.51 20.51 0 004.532-3.124v.004z"/>
    <path fill="#0580C3" d="M580.224 34.134s-63.68-3.84-56.177 40.764c0 0-1.512 7.885 5.657 11.461 0 0 .113-3.303 6.534-2.177 2.286.379 4.608.49 6.92.332a14.417 14.417 0 008.455-3.455s17.901-7.394 24.859-36.636c0 0 5.15-6.38 4.946-8.022l-10.746 4.59s3.675 7.748.756 14.187c0 0-.348-13.91-2.413-13.608-.415.06-5.581 2.683-5.581 2.683s6.315 13.495 1.551 23.309c0 0 1.807-16.632-3.525-22.333l-7.563 4.415s7.382 13.941 2.375 25.32c0 0 1.284-17.45-3.97-24.246l-6.852 5.344s6.935 13.737 2.707 23.174c0 0-.552-20.307-4.19-21.841 0 0-5.997 5.292-6.913 7.454 0 0 4.75 9.98 1.8 15.24 0 0-1.807-13.532-3.29-13.607 0 0-5.974 8.966-6.595 15.12 0 0 .258-9.14 5.15-15.967 0 0-5.778.99-9.151 4.73 0 0 .93-6.336 10.626-6.895 0 0 4.938-6.804 6.254-7.212 0 0-9.635-.811-15.481 1.784 0 0 5.143-5.98 17.251-3.259l6.769-5.526s-12.69-1.732-18.075.182c0 0 6.194-5.292 19.898-1.437l7.367-4.4s-10.823-2.329-17.266-1.512c0 0 6.806-3.666 19.428.31l5.294-2.364s-7.926-1.558-10.248-1.807c-2.322-.25-2.442-.884-2.442-.884A27.5 27.5 0 01569.234 39s11.179-4.163 10.99-4.867z"/>
    <path fill="#3F3D56" d="M492.974 10.52s-28.739-1.732-25.381 18.424c0 0-.676 3.56 2.556 5.178 0 0 .052-1.512 2.957-.99 1.031.173 2.079.224 3.123.15a6.476 6.476 0 003.819-1.572s8.092-3.341 11.238-16.556c0 0 2.322-2.88 2.23-3.622l-4.855 2.072s1.656 3.5.355 6.41c0 0-.158-6.282-1.088-6.138-.19 0-2.527 1.216-2.527 1.216s2.859 6.1.704 10.531c0 0 .816-7.514-1.596-10.092l-3.418 2.027s3.335 6.297 1.074 11.438c0 0 .582-7.885-1.793-10.954l-3.093 2.42s3.131 6.206 1.225 10.471c0 0-.257-9.178-1.898-9.873 0 0-2.708 2.389-3.124 3.372 0 0 2.148 4.536.817 6.887 0 0-.817-6.116-1.512-6.148 0 0-2.7 4.053-2.98 6.804a14.754 14.754 0 012.329-7.212 8.132 8.132 0 00-4.136 2.14s.423-2.866 4.802-3.115c0 0 2.269-3.077 2.829-3.266 0 0-4.356-.363-6.996.81 0 0 2.321-2.698 7.79-1.473l3.025-2.495s-5.738-.764-8.171.078c0 0 2.798-2.389 8.992-.65l3.328-1.988s-4.893-1.05-7.805-.676c0 0 3.078-1.656 8.781.135l2.382-1.066s-3.582-.703-4.636-.817c-1.055-.113-1.105-.4-1.105-.4a12.4 12.4 0 016.731.756s5.115-1.902 5.027-2.216zM49.79 318.217s-28.738-1.732-25.38 18.424c0 0-.676 3.561 2.556 5.178 0 0 .053-1.512 2.957-.99 1.031.173 2.08.224 3.123.151a6.474 6.474 0 003.82-1.573s8.091-3.341 11.237-16.556c0 0 2.322-2.88 2.23-3.621l-4.855 2.071s1.657 3.5.356 6.411c0 0-.159-6.283-1.089-6.139-.19 0-2.526 1.216-2.526 1.216s2.859 6.101.703 10.532c0 0 .817-7.515-1.595-10.093l-3.419 2.027s3.335 6.297 1.074 11.438c0 0 .583-7.885-1.792-10.954l-3.094 2.419s3.132 6.207 1.226 10.472c0 0-.257-9.178-1.899-9.873 0 0-2.707 2.389-3.124 3.372 0 0 2.148 4.536.817 6.887 0 0-.817-6.116-1.512-6.148 0 0-2.7 4.054-2.98 6.804a14.75 14.75 0 012.33-7.212 8.138 8.138 0 00-4.137 2.14s.424-2.865 4.802-3.115c0 0 2.27-3.077 2.829-3.266 0 0-4.356-.362-6.996.811 0 0 2.322-2.699 7.79-1.474l3.025-2.495s-5.738-.764-8.17.078c0 0 2.797-2.389 8.991-.65l3.328-1.988s-4.893-1.051-7.804-.676c0 0 3.077-1.656 8.78.135l2.383-1.066s-3.582-.703-4.637-.816c-1.054-.114-1.104-.401-1.104-.401a12.393 12.393 0 016.73.756s5.115-1.901 5.027-2.216z"/>
  </g>
  <defs>
    <linearGradient id="paint0_linear" x1="141.493" x2="141.493" y1="259.568" y2="259.373" gradientUnits="userSpaceOnUse">
      <stop stop-color="gray" stop-opacity=".251"/>
      <stop offset=".54" stop-color="gray" stop-opacity=".122"/>
      <stop offset="1" stop-color="gray" stop-opacity=".102"/>
    </linearGradient>
    <clipPath id="clip0">
      <path fill="#fff" d="M0 0h610v506H0z"/>
    </clipPath>
  </defs>
</svg>
